HIERARCHY
ROOT joint_Root
{
	OFFSET 0.0 0.0 0.0
	CHANNELS 6 Xposition Yposition Zposition Zrotation Xrotation Yrotation 
	JOINT Hips
	{
		OFFSET 4.5925 91.4895 -427.239
		CHANNELS 6 Xposition Yposition Zposition Zrotation Xrotation Yrotation 
		JOINT Spine
		{
			OFFSET 15.7357 0.0 0.0
			CHANNELS 6 Xposition Yposition Zposition Zrotation Xrotation Yrotation 
			JOINT Chest
			{
				OFFSET 8.98455 -0.406207 0.0
				CHANNELS 6 Xposition Yposition Zposition Zrotation Xrotation Yrotation 
				JOINT Neck
				{
					OFFSET 16.3773 0.0 0.0
					CHANNELS 6 Xposition Yposition Zposition Zrotation Xrotation Yrotation 
					JOINT Head
					{
						OFFSET 6.45672 0.0 0.0
						CHANNELS 6 Xposition Yposition Zposition Zrotation Xrotation Yrotation 
						End Site
						{
							OFFSET 0.0 0.0 0.0
						}
					}
				}
				JOINT Shoulder_L
				{
					OFFSET 12.9942 -0.242716 4.98039
					CHANNELS 6 Xposition Yposition Zposition Zrotation Xrotation Yrotation 
					JOINT UpperArm_L
					{
						OFFSET 5.34809 0.0 0.0
						CHANNELS 6 Xposition Yposition Zposition Zrotation Xrotation Yrotation 
						JOINT LowerArm_L
						{
							OFFSET 24.3286 1.87007e-05 0.0
							CHANNELS 6 Xposition Yposition Zposition Zrotation Xrotation Yrotation 
							JOINT Hand_L
							{
								OFFSET 22.2916 0.0 0.0
								CHANNELS 6 Xposition Yposition Zposition Zrotation Xrotation Yrotation 
								End Site
								{
									OFFSET 0.0 0.0 0.0
								}
							}
						}
					}
				}
				JOINT Shoulder_R
				{
					OFFSET 12.9945 -0.242716 -4.98039
					CHANNELS 6 Xposition Yposition Zposition Zrotation Xrotation Yrotation 
					JOINT UpperArm_R
					{
						OFFSET -5.34813 0.0 0.0
						CHANNELS 6 Xposition Yposition Zposition Zrotation Xrotation Yrotation 
						JOINT LowerArm_R
						{
							OFFSET -24.3289 0.000322201 0.0
							CHANNELS 6 Xposition Yposition Zposition Zrotation Xrotation Yrotation 
							JOINT Hand_R
							{
								OFFSET -22.2915 -0.000108084 0.0
								CHANNELS 6 Xposition Yposition Zposition Zrotation Xrotation Yrotation 
								End Site
								{
									OFFSET 0.0 0.0 0.0
								}
							}
						}
					}
				}
			}
		}
		JOINT UpperLeg_L
		{
			OFFSET -2.19248 -6.46944 0.0
			CHANNELS 6 Xposition Yposition Zposition Zrotation Xrotation Yrotation 
			JOINT LowerLeg_L
			{
				OFFSET 39.0811 0.0 -1.23785e-05
				CHANNELS 6 Xposition Yposition Zposition Zrotation Xrotation Yrotation 
				JOINT Foot_L
				{
					OFFSET 40.9854 0.0 -1.26872e-05
					CHANNELS 6 Xposition Yposition Zposition Zrotation Xrotation Yrotation 
					JOINT Toes_L
					{
						OFFSET 11.7543 0.0 0.0
						CHANNELS 6 Xposition Yposition Zposition Zrotation Xrotation Yrotation 
						End Site
						{
							OFFSET 0.0 0.0 0.0
						}
					}
				}
			}
		}
		JOINT UpperLeg_R
		{
			OFFSET -2.19251 6.46944 0.0
			CHANNELS 6 Xposition Yposition Zposition Zrotation Xrotation Yrotation 
			JOINT LowerLeg_R
			{
				OFFSET -39.0811 -0.00228153 -0.0401928
				CHANNELS 6 Xposition Yposition Zposition Zrotation Xrotation Yrotation 
				JOINT Foot_R
				{
					OFFSET -40.9854 0.0 0.0
					CHANNELS 6 Xposition Yposition Zposition Zrotation Xrotation Yrotation 
					JOINT Toes_R
					{
						OFFSET -11.7543 0.0 0.0
						CHANNELS 6 Xposition Yposition Zposition Zrotation Xrotation Yrotation 
						End Site
						{
							OFFSET 0.0 0.0 0.0
						}
					}
				}
			}
		}
	}
}
MOTION
Frames:	5
Frame Time:	0.0333333
0.000000 0.000000 0.000000 0.000000 0.000000 -0.000000 136.785000 88.332500 -149.593000 86.838900 2.217300 -2.520260 15.735700 0.000005 -0.000001 57.877200 82.284700 -57.091200 8.984550 -0.406207 -0.000000 5.402910 -8.202910 1.959930 16.377300 -0.000001 -0.000001 -0.557490 -2.423760 0.821772 6.456720 -0.000001 -0.000000 -7.207760 0.255877 4.508930 12.994200 -0.242716 4.980390 -88.854900 -3.982060 -73.941100 5.348090 -0.000007 -0.000001 -62.837000 35.701200 -28.347300 24.328600 0.000019 0.000005 0.237571 -0.095441 -112.119000 22.291600 -0.000001 0.000005 11.926100 5.503140 -6.660390 12.994500 -0.242716 -4.980390 89.118600 3.994860 -77.547600 -5.348130 -0.000001 -0.000004 -67.267100 37.559000 23.966700 -24.328900 0.000322 -0.000009 -10.954000 0.237177 -91.224100 -22.291500 -0.000108 -0.000004 26.799500 5.669110 -17.243000 -2.192480 -6.469440 -0.000000 -172.640000 -9.516080 7.449220 39.081100 -0.000007 -0.000012 -0.039245 0.075355 27.510900 40.985400 -0.000006 -0.000013 0.542849 5.721170 -73.969600 11.754300 -0.000000 0.000003 -0.038476 -0.253991 -27.006100 -2.192510 6.469440 -0.000001 -172.123000 15.381400 145.399000 -39.081100 -0.002282 -0.040193 0.015698 -0.014278 41.024700 -40.985400 0.000008 0.000006 3.638290 4.308180 -62.762100 -11.754300 -0.000006 -0.000006 -0.028316 -0.209640 -25.157600
0.000000 0.000000 0.000000 0.000000 0.000000 -0.000000 136.439000 87.078300 -145.005000 86.911500 2.394530 -2.667350 15.735700 0.000005 -0.000001 60.608800 83.118000 -59.443500 8.984550 -0.406207 -0.000000 4.321320 -6.779220 2.586150 16.377300 -0.000001 -0.000001 0.306343 -3.081810 0.619606 6.456720 -0.000001 -0.000000 -6.298590 -1.328320 3.869110 12.994200 -0.242716 4.980390 -89.608100 -1.294850 -73.156300 5.348090 -0.000007 -0.000001 -64.200400 38.854500 -22.960900 24.328600 0.000019 0.000005 3.778520 -0.404678 -96.126200 22.291600 -0.000001 0.000005 11.735900 5.505270 -6.747170 12.994500 -0.242716 -4.980390 88.234100 7.904730 -77.364700 -5.348130 -0.000001 -0.000004 -65.840500 37.956200 18.261000 -24.328900 0.000322 -0.000009 -12.108400 -0.050870 -89.761400 -22.291500 -0.000108 -0.000004 27.679100 5.668740 -17.189800 -2.192480 -6.469440 -0.000000 -171.991000 -8.530530 7.930240 39.081100 -0.000007 -0.000012 -0.037931 0.060814 31.953100 40.985400 -0.000006 -0.000013 -0.502404 5.855570 -73.242700 11.754300 -0.000000 0.000003 -0.088606 -0.415375 -33.861300 -2.192510 6.469440 -0.000001 -171.120000 16.749900 145.106000 -39.081100 -0.002282 -0.040193 0.059498 -0.053980 46.173000 -40.985400 0.000008 0.000006 11.562600 1.823180 -65.537600 -11.754300 -0.000006 -0.000006 -0.016751 -0.148578 -22.638000
0.000000 0.000000 0.000000 0.000000 0.000000 -0.000000 136.181000 86.256500 -140.065000 86.942100 1.711050 -1.507710 15.735700 0.000005 -0.000001 67.721800 83.545100 -66.113000 8.984550 -0.406207 -0.000000 4.264460 -4.935600 3.399420 16.377300 -0.000001 -0.000001 0.598272 -3.299670 0.317561 6.456720 -0.000001 -0.000000 -5.937250 -2.498610 2.838640 12.994200 -0.242716 4.980390 -89.957400 -0.132464 -72.166900 5.348090 -0.000007 -0.000001 -66.737000 41.724700 -18.200300 24.328600 0.000019 0.000005 4.977000 1.546100 -72.784200 22.291600 -0.000001 0.000005 11.869600 5.523280 -7.499560 12.994500 -0.242716 -4.980390 87.638500 10.775400 -77.561000 -5.348130 -0.000001 -0.000004 -63.986600 39.927700 9.391990 -24.328900 0.000322 -0.000009 -12.182000 0.352592 -91.631800 -22.291500 -0.000108 -0.000004 27.795600 5.664370 -16.590600 -2.192480 -6.469440 -0.000000 -171.751000 -7.969030 7.381800 39.081100 -0.000007 -0.000012 -0.005521 0.006658 39.673700 40.985400 -0.000006 -0.000013 -1.322150 4.311710 -67.041300 11.754300 -0.000000 0.000003 -0.236276 -0.702227 -46.970400 -2.192510 6.469440 -0.000001 -172.588000 14.133300 147.664000 -39.081100 -0.002282 -0.040193 0.069846 -0.053961 50.985600 -40.985400 0.000008 0.000006 10.552400 -0.236102 -70.007600 -11.754300 -0.000006 -0.000006 -0.004515 -0.056694 -18.879500
0.000000 0.000000 0.000000 0.000000 0.000000 -0.000000 135.894000 86.090000 -135.156000 86.894400 0.618831 1.111590 15.735700 0.000005 -0.000001 76.128700 83.225800 -74.121200 8.984550 -0.406207 -0.000000 5.454920 -3.281120 4.167600 16.377300 -0.000001 -0.000001 0.886225 -3.380820 0.408302 6.456720 -0.000001 -0.000000 -6.074430 -2.661770 1.400420 12.994200 -0.242716 4.980390 -89.904000 -0.308949 -72.732100 5.348090 -0.000007 -0.000001 -68.743500 44.401700 -13.013400 24.328600 0.000019 0.000005 6.297510 5.236520 -50.415800 22.291600 -0.000001 0.000005 14.490400 5.548560 -8.638540 12.994500 -0.242716 -4.980390 87.696100 11.491100 -78.582600 -5.348130 -0.000001 -0.000004 -61.648700 43.074300 -3.747310 -24.328900 0.000322 -0.000009 -10.914500 1.220580 -96.303900 -22.291500 -0.000108 -0.000004 27.440900 5.657610 -15.790700 -2.192480 -6.469440 -0.000000 -171.447000 -8.480100 4.306350 39.081100 -0.000007 -0.000012 0.083145 -0.066972 51.147600 40.985400 -0.000006 -0.000013 0.315923 1.555460 -53.559400 11.754300 -0.000000 0.000003 -0.285614 -0.771352 -50.414400 -2.192510 6.469440 -0.000001 -173.787000 12.518500 153.883000 -39.081100 -0.002282 -0.040193 0.079619 -0.059657 52.007600 -40.985400 0.000008 0.000006 10.053500 -1.517740 -74.061900 -11.754300 -0.000006 -0.000006 -0.002260 -0.031927 -17.871400
0.000000 0.000000 0.000000 0.000000 0.000000 -0.000000 135.645000 86.309000 -131.085000 86.991500 0.931146 2.256110 15.735700 0.000005 -0.000001 78.547100 82.974000 -76.318500 8.984550 -0.406207 -0.000000 6.070580 -2.815560 4.602150 16.377300 -0.000001 -0.000001 0.330060 -3.968880 1.026650 6.456720 -0.000001 -0.000000 -6.307020 -2.257290 0.688858 12.994200 -0.242716 4.980390 -90.166800 0.565168 -73.559300 5.348090 -0.000007 -0.000001 -68.074600 46.950000 -2.151920 24.328600 0.000019 0.000005 9.566250 8.085320 -50.155000 22.291600 -0.000001 0.000005 13.239300 5.567860 -9.579640 12.994500 -0.242716 -4.980390 88.063000 10.692900 -79.670200 -5.348130 -0.000001 -0.000004 -56.767600 45.437200 -20.674600 -24.328900 0.000322 -0.000009 -7.614300 1.744670 -102.833000 -22.291500 -0.000108 -0.000004 26.381500 5.654090 -15.418300 -2.192480 -6.469440 -0.000000 -172.830000 -5.781440 -3.470970 39.081100 -0.000007 -0.000012 0.098601 -0.049033 63.557000 40.985400 -0.000006 -0.000013 1.374440 -3.548040 -40.109800 11.754300 -0.000000 0.000003 -0.017337 -0.152079 -22.785700 -2.192510 6.469440 -0.000001 -174.678000 12.999800 158.881000 -39.081100 -0.002282 -0.040193 0.088976 -0.069340 51.034100 -40.985400 0.000008 0.000006 9.605730 -1.596140 -76.703100 -11.754300 -0.000006 -0.000006 -0.001992 -0.028611 -17.736500
